<svg id="Ebene_1" data-name="Ebene 1" xmlns="http://www.w3.org/2000/svg" viewBox="0 0 518.38 102.71">
  <defs>
    <style>
      .cls-1 {
        fill: none;
        stroke: #fff;
        stroke-linecap: round;
        stroke-miterlimit: 10;
        stroke-width: 2px;
      }
    </style>
  </defs>
  <title>std</title>
  <style>
    #save {
  stroke-dasharray: 690;
  stroke-dashoffset: 690;
  animation: dash 2.0s  ease-in-out forwards;
}
#the, #date {
stroke-dasharray: 450;
stroke-dashoffset: 450;
animation: dash 1.6s  ease-in-out forwards;
}
 #dlet {
stroke-dasharray: 450;
stroke-dashoffset: 450;
animation: dash 2.0s  ease-in-out forwards;
}
#tbar {
stroke-dasharray: 250;
stroke-dashoffset: 250;
animation: dash .7s  ease-in-out forwards;
}
#the{
animation-delay:1.3s;
}
#tbar{
animation-delay:1.9s;
}
#dlet{
animation-delay:2.4s;
}
#date{
animation-delay:2.4s;
}

@keyframes dash {
  to {
    stroke-dashoffset: 0;
  }
}
</style>
  <path id="save" class="cls-1" d="M4.55,57.16c-6.32,20.06,31,22.1,59.11,10.37s40.43-40,23.81-49.35c-9.57-4.69-41.94,9.65-22.31,43.75C80.75,89,55.26,103.72,45.53,98.09c-6.12-3.53,5-13.83,16.76-18.16s54-15.43,55.55-20.51-4.42-14.56-14.35,1.23-2.57,19.3,1,17.22a45.1,45.1,0,0,0,12.89-11.6c.45.18-7.07,15.65,2,10.83S147,55.24,147,55.24s-9.92,22.06-1.91,22,22.19-23.94,13.53-25.83-4.1,11.53,6,15.65,25.14-2.58,24.55-9.67-11-6.76-14.89,2.4S168.23,80.35,179,81.14s36.66-16.38,46.59-13.84c6.29,1.6,6.32,4.59,6.32,4.59"/>
  <path id="the" class="cls-1" d="M260.2,24.61C245.2,55,238.61,78.12,244.46,77c6.94-1.39,22.27-13.49,26.92-23.84,3-6.7,4-8.95,4-8.95s21.65.15,24.14-13.26c1.92-10.35-5.9-23.6-20.41,5.61S264.83,72.7,264.83,72.7,277.34,52.88,283,56s-10.34,16.59-1.51,16.81,26.46-10.35,28.06-16.51-5.81-9.47-9.91.43-5,20.88,9.07,16.13,23.1-10.37,30.43-10.37c4.89,0,4.28,3.59,4.28,3.59"/>
  <path id="tbar" class="cls-1" d="M215.63,59.53c-2.46-11.06,1.58-19.56,27.83-16.88s32,1.52,32,1.52"/>
  <path id="dlet" class="cls-1" d="M367.53,63.76c1.08-13.93-6.8-12.53-10.53-7.31s-10.06,20.48-1,19.23,21.87-30.24,20.83-42.54c-1.62-19-19.27-31.08-41.11-28.6s-32.86,25.4-5,34.9a129.68,129.68,0,0,0,80,1.35c24-7.41,70.08-20,82.73-2.77,7.05,9.6-3.2,15.49-14.54,14.16"/>
  <path id="date" class="cls-1" d="M358,75.75c29.71-1.63,43.49-17.67,45.8-22.74s-3-8.83-7.75-4.38-15.89,24.79-6.64,21.88,12.47-8.5,14.83-11.8c-2.17,4.72-6.92,13.42-.43,13.9s21.87-15.27,27.26-26S446.21,17.7,446.21,17.7,412.67,76.58,424.43,77c16.07.57,37.33-18.33,38.34-24.39s-6.92-7.1-10.7.13S442.29,77.37,461.52,74s25-12.78,39.75-13.66c9.18-.55,11,1.85,11,1.85"/>
</svg>
