<svg id="Ebene_1" data-name="Ebene 1" xmlns="http://www.w3.org/2000/svg" xmlns:xlink="http://www.w3.org/1999/xlink" viewBox="0 0 590.7 79">
  <defs>
    <style>
      .cls-1 {
        fill: none;
      }

      .cls-2 {
        clip-path: url(#clip-path);
      }

      .cls-3 {
        fill: #fff;
      }
    </style>
    <clipPath id="clip-path">
      <rect class="cls-1" width="590.7" height="78.99"/>
    </clipPath>
  </defs>
  <title>monessa-logo</title>
  <g class="cls-2">
    <path class="cls-3" d="M118.8,77.5H91.1v-2c6.3-1.8,6.6-4.9,6.6-13.3V26.8c0-11.8-4.4-18.6-15-18.6-8.2,0-15.1,8.4-15.1,14.5V62.2c0,9.1.8,11.9,6.7,13.3v2H46.6v-2c6.3-1.8,6.6-4.9,6.6-13.3V26.8c0-11.8-4.4-18.6-15-18.6-8.2,0-14.3,8.6-15.5,14.2v40c0,9,.9,11.5,6.8,13v2.1H1.8V75.4c6.3-1.8,6.4-4.6,6.4-13V17.1C8.2,11.4,6.9,8.6,0,6.8v-2L22.7,0V17C26.4,7.6,35.6,0,46,0S64.9,5.3,67.1,17.6C70,7.9,79.9,0,90.5,0,104,0,112,6.4,112,26.3V62.2c0,9.1,1,11.9,6.8,13.3Z"/>
    <path class="cls-3" d="M166.2,2.2C153.6,2.2,145,9.7,145,39.5s8.6,37.4,21.2,37.4,21-7.6,21-37.4-8.4-37.3-21-37.3m0,76.8c-25,0-38-17.9-38-39.5S141.2,0,166.2,0s37.9,17.8,37.9,39.5S191.5,79,166.2,79"/>
    <path class="cls-3" d="M290,77.5H262.3v-2c6.3-1.8,6.6-4.9,6.6-13.3V26.8c0-11.1-5.9-18.6-16.8-18.6-8.6,0-15.5,8.3-16.8,14.2v40c0,9,.8,11.5,6.7,13v2.1H214.4V75.4c6.2-1.8,6.4-4.6,6.4-13V16.5c0-5.8-1.3-7.9-8.3-9.7v-2L235.3,0V17.3C238.7,7.8,250.1,0,260.5,0c13.3,0,22.7,6.4,22.7,26.3V62.2c0,9.1,1,11.9,6.8,13.3Z"/>
    <path class="cls-3" d="M354.2,35.9c0-24-10.7-33.7-18.6-33.7-9.4,0-19.9,13-19.9,33.7Zm11.6,22.2C364,65.8,354.9,79,335.5,79s-35.3-17.1-35.3-38.8C300.2,15.8,315.7,0,336.1,0s32.3,12.2,32.3,38H315.7c.6,22.2,10.5,31.1,23.5,32.4,9.9,1,21.6-5.1,24.6-13.1Z"/>
    <path class="cls-3" d="M411.9,79c-19.9,0-28.8-6.6-28.8-6.6V50h2.1c1.2,10.9,5.3,26.9,26.7,26.9,17.5,0,15.3-17.5,2.8-25.7l-16.6-10c-15.8-10.6-19.5-20.4-12.9-31.8,0,0,5-9.4,21.8-9.4,18.9,0,26.8,5.3,26.8,5.3V25.4h-2c-1.1-9.7-5.7-23.2-24.8-23.2-15.7,0-16.8,15.4-2.5,24.5L421.1,37c14.9,9.3,19.6,22.6,11.7,33.9,0,0-5.6,8.1-20.9,8.1"/>
    <path class="cls-3" d="M480.6,79c-19.9,0-28.8-6.6-28.8-6.6V50h2.1c1.2,10.9,5.3,26.9,26.7,26.9,17.5,0,15.3-17.5,2.8-25.7l-16.6-10C451,30.6,447.3,20.8,453.9,9.4c0,0,5-9.4,21.8-9.4,18.9,0,26.8,5.3,26.8,5.3V25.4h-1.9c-1.2-9.7-5.8-23.2-24.9-23.2-15.7,0-16.8,15.4-2.5,24.5L489.8,37c14.9,9.3,19.6,22.6,11.7,33.9,0,0-5.6,8.1-20.9,8.1"/>
    <path class="cls-3" d="M534,58.6c0,4.8,3,13,13,13s12.9-6.3,14.5-10.2V36.9C542.4,41.5,534,48.7,534,58.6M588.7,67l2,.8c-1,4.9-6.6,11.2-15.2,11.2,0,0-13,.3-14-13.8C559.2,73.1,549.7,79,538.1,79c0,0-18.8,0-18.8-17s14-20,42.2-27.3V25.2c0-17-8.6-26.5-21.7-20.4-6.5,3.1-7.4,6.2-6.5,6.4a7.4,7.4,0,0,1,5.1,3,7.6,7.6,0,0,1-1.6,10.7,7.3,7.3,0,0,1-10.5-1.5,7.6,7.6,0,0,1-.9-8.1c1.2-2.4,4-7.4,12.9-12.2A33,33,0,0,1,553.4,0c18,0,22.9,13.3,22.9,32.9v28s-.1,10.4,7.5,10.4a5.4,5.4,0,0,0,4.9-4.3"/>
  </g>
</svg>
